<?xml version="1.0" encoding="utf-8"?>
<!-- Generator: Adobe Illustrator 18.0.0, SVG Export Plug-In . SVG Version: 6.00 Build 0)  -->
<!DOCTYPE svg PUBLIC "-//W3C//DTD SVG 1.1//EN" "http://www.w3.org/Graphics/SVG/1.1/DTD/svg11.dtd">
<svg version="1.1" id="Layer_1" xmlns="http://www.w3.org/2000/svg" xmlns:xlink="http://www.w3.org/1999/xlink" x="0px" y="0px"
	 viewBox="0 0 172.1 28.1" enable-background="new 0 0 172.1 28.1" xml:space="preserve">
<g>
	<defs>
		<polygon id="SVGID_1_" points="4,3.4 4,23.3 10.4,23.3 16.8,23.3 16.8,3.4 		"/>
	</defs>
	<clipPath id="SVGID_2_">
		<use xlink:href="#SVGID_1_"  overflow="visible"/>
	</clipPath>
	<g clip-path="url(#SVGID_2_)">
		<defs>
			<rect id="SVGID_3_" x="-68" y="-53.4" width="1440" height="1024"/>
		</defs>
		<clipPath id="SVGID_4_">
			<use xlink:href="#SVGID_3_"  overflow="visible"/>
		</clipPath>
		<g clip-path="url(#SVGID_4_)" enable-background="new    ">
			<g>
				<defs>
					<rect id="SVGID_5_" x="4" y="2.6" width="13" height="21"/>
				</defs>
				<clipPath id="SVGID_6_">
					<use xlink:href="#SVGID_5_"  overflow="visible"/>
				</clipPath>
				<g clip-path="url(#SVGID_6_)">
					<defs>
						<path id="SVGID_7_" d="M9.4,23.3c-2.3,0-3.8-0.6-5.4-2.2L7.2,18c0.6,0.6,1.1,1,2.2,1c1.5,0,2.6-0.8,2.6-2.7V3.4h4.9v12.9
							C16.8,21,13.1,23.3,9.4,23.3"/>
					</defs>
					<clipPath id="SVGID_8_">
						<use xlink:href="#SVGID_7_"  overflow="visible"/>
					</clipPath>
					<g clip-path="url(#SVGID_8_)">
						<defs>
							<rect id="SVGID_9_" x="4" y="2.6" width="13" height="21"/>
						</defs>
						<clipPath id="SVGID_10_">
							<use xlink:href="#SVGID_9_"  overflow="visible"/>
						</clipPath>
						<rect x="-1" y="-1.6" clip-path="url(#SVGID_10_)" fill="#231F20" width="22.9" height="29.8"/>
					</g>
				</g>
			</g>
		</g>
	</g>
</g>
<g>
	<defs>
		<rect id="SVGID_11_" x="4" y="3.3" width="165.4" height="20"/>
	</defs>
	<clipPath id="SVGID_12_">
		<use xlink:href="#SVGID_11_"  overflow="visible"/>
	</clipPath>
	<g clip-path="url(#SVGID_12_)">
		<defs>
			<rect id="SVGID_13_" x="-68" y="-53.4" width="1440" height="1024"/>
		</defs>
		<clipPath id="SVGID_14_">
			<use xlink:href="#SVGID_13_"  overflow="visible"/>
		</clipPath>
		<g clip-path="url(#SVGID_14_)" enable-background="new    ">
			<g>
				<defs>
					<rect id="SVGID_15_" x="20" y="2.6" width="150" height="21"/>
				</defs>
				<clipPath id="SVGID_16_">
					<use xlink:href="#SVGID_15_"  overflow="visible"/>
				</clipPath>
				<g clip-path="url(#SVGID_16_)">
					<defs>
						<rect id="SVGID_17_" x="20.6" y="3.4" width="4.9" height="19.7"/>
					</defs>
					<clipPath id="SVGID_18_">
						<use xlink:href="#SVGID_17_"  overflow="visible"/>
					</clipPath>
					<g clip-path="url(#SVGID_18_)">
						<defs>
							<rect id="SVGID_19_" x="4" y="2.6" width="166" height="21"/>
						</defs>
						<clipPath id="SVGID_20_">
							<use xlink:href="#SVGID_19_"  overflow="visible"/>
						</clipPath>
						<rect x="15.6" y="-1.6" clip-path="url(#SVGID_20_)" fill="#231F20" width="14.9" height="29.7"/>
					</g>
				</g>
				<g clip-path="url(#SVGID_16_)">
					<defs>
						<polygon id="SVGID_21_" points="40.7,23.1 34.3,13.2 34.3,23.1 29.5,23.1 29.5,3.4 33.7,3.4 40.1,13.3 40.1,3.4 44.9,3.4 
							44.9,23.1 						"/>
					</defs>
					<clipPath id="SVGID_22_">
						<use xlink:href="#SVGID_21_"  overflow="visible"/>
					</clipPath>
					<g clip-path="url(#SVGID_22_)">
						<defs>
							<rect id="SVGID_23_" x="4" y="2.6" width="166" height="21"/>
						</defs>
						<clipPath id="SVGID_24_">
							<use xlink:href="#SVGID_23_"  overflow="visible"/>
						</clipPath>
						<rect x="24.5" y="-1.6" clip-path="url(#SVGID_24_)" fill="#231F20" width="25.5" height="29.7"/>
					</g>
				</g>
				<g clip-path="url(#SVGID_16_)">
					<defs>
						<path id="SVGID_25_" d="M54.6,23.3c-3,0-5.5-0.6-7.5-2.6l3.1-3.1c1,1,2.8,1.4,4.4,1.4c1.9,0,2.8-0.6,2.8-1.8
							c0-0.5-0.1-0.9-0.4-1.2c-0.3-0.2-0.7-0.4-1.3-0.5l-2.4-0.3c-1.8-0.2-3.1-0.8-4-1.7c-0.9-0.9-1.4-2.3-1.4-3.9
							c0-3.6,2.7-6.2,7.2-6.2c2.8,0,5,0.7,6.7,2.3l-3.1,3c-1.3-1.2-2.9-1.2-3.8-1.2c-1.7,0-2.4,1-2.4,1.8c0,0.2,0.1,0.6,0.4,0.9
							c0.3,0.2,0.7,0.5,1.4,0.6l2.4,0.3c1.8,0.2,3.1,0.8,3.9,1.6c1.1,1,1.5,2.5,1.5,4.3C62.3,21.1,58.8,23.3,54.6,23.3"/>
					</defs>
					<clipPath id="SVGID_26_">
						<use xlink:href="#SVGID_25_"  overflow="visible"/>
					</clipPath>
					<g clip-path="url(#SVGID_26_)">
						<defs>
							<rect id="SVGID_27_" x="4" y="2.6" width="166" height="21"/>
						</defs>
						<clipPath id="SVGID_28_">
							<use xlink:href="#SVGID_27_"  overflow="visible"/>
						</clipPath>
						<rect x="42.1" y="-1.7" clip-path="url(#SVGID_28_)" fill="#231F20" width="25.2" height="30"/>
					</g>
				</g>
				<g clip-path="url(#SVGID_16_)">
					<defs>
						<path id="SVGID_29_" d="M77.9,21.1c-1.4,1.4-3.1,2.2-5.5,2.2c-2.4,0-4.1-0.8-5.5-2.2c-2.1-2.1-2-4.8-2-7.8s-0.1-5.7,2-7.8
							C68.3,4,70,3.3,72.4,3.3c2.4,0,4.1,0.8,5.5,2.2c2.1,2.1,2,4.8,2,7.8S80,19,77.9,21.1 M74.3,8.4C74,8,73.3,7.6,72.4,7.6
							S70.8,8,70.4,8.4C70,9,69.7,9.7,69.7,13.3c0,3.6,0.3,4.2,0.7,4.8c0.4,0.5,1.1,0.9,1.9,0.9s1.6-0.4,1.9-0.9
							c0.4-0.6,0.7-1.2,0.7-4.8C75,9.7,74.8,9,74.3,8.4"/>
					</defs>
					<clipPath id="SVGID_30_">
						<use xlink:href="#SVGID_29_"  overflow="visible"/>
					</clipPath>
					<g clip-path="url(#SVGID_30_)">
						<defs>
							<rect id="SVGID_31_" x="4" y="2.6" width="166" height="21"/>
						</defs>
						<clipPath id="SVGID_32_">
							<use xlink:href="#SVGID_31_"  overflow="visible"/>
						</clipPath>
						<rect x="59.8" y="-1.7" clip-path="url(#SVGID_32_)" fill="#231F20" width="25.1" height="30"/>
					</g>
				</g>
				<g clip-path="url(#SVGID_16_)">
					<defs>
						<polygon id="SVGID_33_" points="83.3,23.1 83.3,3.4 88.2,3.4 88.2,18.8 96.5,18.8 96.5,23.1 						"/>
					</defs>
					<clipPath id="SVGID_34_">
						<use xlink:href="#SVGID_33_"  overflow="visible"/>
					</clipPath>
					<g clip-path="url(#SVGID_34_)">
						<defs>
							<rect id="SVGID_35_" x="4" y="2.6" width="166" height="21"/>
						</defs>
						<clipPath id="SVGID_36_">
							<use xlink:href="#SVGID_35_"  overflow="visible"/>
						</clipPath>
						<rect x="78.3" y="-1.6" clip-path="url(#SVGID_36_)" fill="#231F20" width="23.2" height="29.7"/>
					</g>
				</g>
				<g clip-path="url(#SVGID_16_)">
					<defs>
						<polygon id="SVGID_37_" points="106.6,3.4 118.6,3.4 118.6,4.8 108.1,4.8 108.1,12.5 117.1,12.5 117.1,13.8 108.1,13.8 
							108.1,21.8 118.6,21.8 118.6,23.1 106.6,23.1 						"/>
					</defs>
					<clipPath id="SVGID_38_">
						<use xlink:href="#SVGID_37_"  overflow="visible"/>
					</clipPath>
					<g clip-path="url(#SVGID_38_)">
						<defs>
							<rect id="SVGID_39_" x="4" y="2.6" width="166" height="21"/>
						</defs>
						<clipPath id="SVGID_40_">
							<use xlink:href="#SVGID_39_"  overflow="visible"/>
						</clipPath>
						<rect x="101.6" y="-1.6" clip-path="url(#SVGID_40_)" fill="#231F20" width="22" height="29.7"/>
					</g>
				</g>
				<g clip-path="url(#SVGID_16_)">
					<defs>
						<path id="SVGID_41_" d="M133.7,21.3c-1.2,1.2-2.9,1.8-5,1.8h-6.7V3.4h6.7c2.1,0,3.8,0.6,5,1.8c2,2,1.9,5.1,1.9,7.8
							C135.7,15.6,135.7,19.3,133.7,21.3 M132.7,6.3c-1.1-1.2-2.7-1.5-4.3-1.5h-4.8v17h4.8c1.6,0,3.1-0.3,4.3-1.5
							c1.6-1.6,1.5-5.1,1.5-7.3C134.2,10.8,134.2,7.9,132.7,6.3"/>
					</defs>
					<clipPath id="SVGID_42_">
						<use xlink:href="#SVGID_41_"  overflow="visible"/>
					</clipPath>
					<g clip-path="url(#SVGID_42_)">
						<defs>
							<rect id="SVGID_43_" x="4" y="2.6" width="166" height="21"/>
						</defs>
						<clipPath id="SVGID_44_">
							<use xlink:href="#SVGID_43_"  overflow="visible"/>
						</clipPath>
						<rect x="117.1" y="-1.6" clip-path="url(#SVGID_44_)" fill="#231F20" width="23.5" height="29.7"/>
					</g>
				</g>
				<g clip-path="url(#SVGID_16_)">
					<defs>
						<polygon id="SVGID_45_" points="139.3,3.4 151.4,3.4 151.4,4.8 140.8,4.8 140.8,12.5 149.8,12.5 149.8,13.8 140.8,13.8 
							140.8,21.8 151.4,21.8 151.4,23.1 139.3,23.1 						"/>
					</defs>
					<clipPath id="SVGID_46_">
						<use xlink:href="#SVGID_45_"  overflow="visible"/>
					</clipPath>
					<g clip-path="url(#SVGID_46_)">
						<defs>
							<rect id="SVGID_47_" x="4" y="2.6" width="166" height="21"/>
						</defs>
						<clipPath id="SVGID_48_">
							<use xlink:href="#SVGID_47_"  overflow="visible"/>
						</clipPath>
						<rect x="134.3" y="-1.6" clip-path="url(#SVGID_48_)" fill="#231F20" width="22" height="29.7"/>
					</g>
				</g>
				<g clip-path="url(#SVGID_16_)">
					<defs>
						<polygon id="SVGID_49_" points="156.4,6 156.4,23.1 154.9,23.1 154.9,3.4 156.4,3.4 167.8,20.5 167.8,3.4 169.3,3.4 
							169.3,23.1 167.8,23.1 						"/>
					</defs>
					<clipPath id="SVGID_50_">
						<use xlink:href="#SVGID_49_"  overflow="visible"/>
					</clipPath>
					<g clip-path="url(#SVGID_50_)">
						<defs>
							<rect id="SVGID_51_" x="4" y="2.6" width="166" height="21"/>
						</defs>
						<clipPath id="SVGID_52_">
							<use xlink:href="#SVGID_51_"  overflow="visible"/>
						</clipPath>
						<rect x="149.9" y="-1.6" clip-path="url(#SVGID_52_)" fill="#231F20" width="24.5" height="29.7"/>
					</g>
				</g>
			</g>
		</g>
	</g>
</g>
</svg>
